<?xml version="1.0" encoding="UTF-8"?>
<!DOCTYPE svg PUBLIC "-//W3C//DTD SVG 1.1//EN" "http://www.w3.org/Graphics/SVG/1.1/DTD/svg11.dtd">
<!-- Creator: CorelDRAW X7 -->
<svg xmlns="http://www.w3.org/2000/svg" xml:space="preserve" width="567px" height="136px" version="1.1" style="shape-rendering:geometricPrecision; text-rendering:geometricPrecision; image-rendering:optimizeQuality; fill-rule:evenodd; clip-rule:evenodd"
viewBox="0 0 336 81"
 xmlns:xlink="http://www.w3.org/1999/xlink">
 <defs>
  <style type="text/css">
   <![CDATA[
    .fil1 {fill:#FEFEFE}
    .fil0 {fill:#2C318D}
    .fil2 {fill:#394346;fill-rule:nonzero}
   ]]>
  </style>
 </defs>
 <g id="Layer_x0020_1">
  <metadata id="CorelCorpID_0Corel-Layer"/>
  <g id="_2413235064144">
   <polygon class="fil0" points="35,0 53,10 70,20 70,40 70,61 53,71 35,81 18,71 0,61 0,40 0,20 18,10 "/>
   <g>
    <path class="fil1" d="M28 39c0,-1 0,-2 1,-2l0 -1c1,0 1,0 1,0 1,0 2,-1 3,0 1,0 1,0 2,1 0,0 1,1 1,1 0,1 0,2 0,3l0 7 0 7 5 0 0 -14c0,-1 0,-2 1,-3 1,-1 2,-2 3,-2 3,-1 5,1 5,4l0 15 5 0 0 -8c0,-3 0,-6 0,-9 -1,-5 -6,-7 -11,-7 -1,0 -2,1 -3,1 0,1 -1,1 -1,1 -1,1 -1,1 -1,1 -2,-2 -5,-3 -8,-3 -2,0 -4,1 -5,2 -1,1 -1,1 -1,2l3 4 0 0z"/>
    <path class="fil1" d="M33 47c-1,1 -1,1 -1,1 -1,1 -1,1 -1,1 -2,2 -6,2 -8,0 -1,-1 -1,-1 -2,-2 -1,-1 -1,-2 -1,-4 -1,-4 0,-11 0,-16 0,-1 0,-1 -1,-1l-4 0 0 4 0 14c0,5 5,10 9,11 2,0 4,0 6,0 1,-1 2,-1 3,-2l0 -6z"/>
   </g>
   <g>
    <path class="fil2" d="M103 53c0,4 1,7 3,9 1,2 4,4 7,4 3,0 6,-1 7,-4 2,-2 3,-5 3,-8 0,-4 -1,-7 -3,-10 -2,-2 -4,-3 -7,-3 -3,0 -6,1 -8,3 -1,3 -2,5 -2,9zm0 -41l0 29c1,-2 2,-4 5,-5 2,-2 4,-2 7,-2 5,0 9,2 12,5 3,4 5,8 5,14 0,6 -2,11 -5,15 -3,3 -7,5 -12,5 -3,0 -5,0 -7,-1 -2,-2 -4,-3 -5,-5l0 5 -8 0 0 -60 8 0z"/>
    <path class="fil2" d="M137 19c0,-1 1,-2 2,-3 1,-1 2,-2 4,-2 1,0 2,1 3,2 1,1 2,2 2,3 0,2 -1,3 -2,4 -1,1 -2,2 -3,2 -2,0 -3,-1 -4,-2 -1,-1 -2,-2 -2,-4zm2 53l0 -37 8 0 0 37 -8 0z"/>
    <polygon class="fil2" points="159,72 159,42 152,42 152,35 159,35 159,27 167,21 167,35 173,35 173,42 167,42 167,72 "/>
    <path class="fil2" d="M187 72l-9 0 0 -37 8 0 0 6c2,-2 4,-4 6,-5 2,-2 4,-2 7,-2 3,0 5,0 7,2 2,1 4,3 5,5 1,-3 4,-4 6,-5 2,-2 4,-2 7,-2 2,0 5,0 6,1 2,1 4,2 5,4 0,1 0,2 1,3 0,1 0,2 0,5l0 2 0 23 -8 0 0 -19c0,-5 -1,-8 -2,-10 -1,-1 -3,-2 -6,-2 -3,0 -5,1 -7,3 -1,2 -2,6 -2,11l0 17 -8 0 0 -19c0,-5 -1,-8 -2,-10 -1,-1 -3,-2 -5,-2 -2,0 -3,0 -5,1 -1,1 -2,2 -3,3 -1,1 -1,2 -1,3 0,1 0,4 0,7l0 17z"/>
    <path class="fil2" d="M279 72l-8 0 0 -5c-2,2 -3,3 -5,5 -2,1 -5,1 -7,1 -5,0 -9,-2 -12,-5 -3,-4 -5,-9 -5,-15 0,-6 2,-10 5,-14 3,-3 7,-5 12,-5 3,0 5,0 7,2 2,1 4,3 5,5l0 -6 8 0 0 37zm-8 -19c0,-4 -1,-6 -3,-9 -1,-2 -4,-3 -7,-3 -3,0 -6,1 -7,3 -2,3 -3,6 -3,10 0,3 1,6 3,8 1,3 4,4 7,4 3,0 5,-2 7,-4 2,-2 3,-5 3,-9z"/>
    <path class="fil2" d="M284 65l7 -4c1,2 2,3 3,4 1,1 3,2 5,2 2,0 4,-1 5,-2 1,0 1,-2 1,-3 0,-2 -2,-4 -5,-5 -2,-1 -3,-1 -3,-1 -4,-2 -7,-4 -8,-5 -2,-2 -3,-4 -3,-6 0,-4 1,-6 4,-8 3,-2 6,-3 10,-3 3,0 5,0 7,1 2,1 4,3 5,5l-6 4c-1,-1 -1,-2 -2,-3 -1,-1 -3,-1 -4,-1 -2,0 -3,0 -4,1 -1,1 -1,2 -1,3 0,2 2,4 6,5 1,1 2,1 3,2 4,1 6,2 7,4 2,2 3,4 3,6 0,4 -2,7 -4,9 -3,2 -7,3 -11,3 -4,0 -7,-1 -9,-2 -3,-1 -4,-3 -6,-6z"/>
    <polygon class="fil2" points="322,72 322,42 315,42 315,35 322,35 322,27 330,21 330,35 336,35 336,42 330,42 330,72 "/>
   </g>
  </g>
 </g>
</svg>
