<?xml version="1.0" encoding="UTF-8"?>
<!DOCTYPE svg PUBLIC "-//W3C//DTD SVG 1.1//EN" "http://www.w3.org/Graphics/SVG/1.1/DTD/svg11.dtd">
<!-- Creator: CorelDRAW X7 -->
<svg xmlns="http://www.w3.org/2000/svg" xml:space="preserve" width="1201px" height="289px" version="1.1" style="shape-rendering:geometricPrecision; text-rendering:geometricPrecision; image-rendering:optimizeQuality; fill-rule:evenodd; clip-rule:evenodd"
viewBox="0 0 5146 1237"
 xmlns:xlink="http://www.w3.org/1999/xlink">
 <defs>
  <style type="text/css">
   <![CDATA[
    .fil0 {fill:#FEFEFE}
    .fil1 {fill:#2C318D}
    .fil2 {fill:#FEFEFE;fill-rule:nonzero}
   ]]>
  </style>
 </defs>
 <g id="Layer_x0020_1">
  <metadata id="CorelCorpID_0Corel-Layer"/>
  <polygon class="fil0" points="536,0 803,155 1071,309 1071,618 1071,928 803,1082 536,1237 268,1082 0,928 0,618 0,309 268,155 "/>
  <g id="_2413227732112">
   <path class="fil1" d="M423 589c4,-9 9,-17 16,-24l12 -10c3,-3 2,-2 3,-4 21,-5 37,-9 58,1 9,4 14,6 20,13 6,5 12,11 16,20 7,12 9,28 7,44l0 107 0 102 74 0 1 -203c-1,-24 1,-44 13,-61 9,-11 24,-23 46,-27 48,-8 75,26 79,69l1 222 72 0 1 -124c-2,-40 5,-91 -5,-129 -18,-74 -85,-116 -158,-108 -20,2 -37,8 -51,17 -8,5 -12,8 -18,14 -9,8 -11,13 -20,19 -16,-33 -68,-54 -112,-51 -37,3 -62,15 -87,36 -7,6 -10,12 -16,17l48 60 0 0z"/>
   <path class="fil1" d="M501 718c-7,9 -13,17 -16,22 -6,3 -10,8 -16,12 -33,21 -83,24 -116,1 -23,-15 -19,-19 -29,-27 -12,-24 -21,-32 -23,-67 -3,-62 -2,-175 -1,-242 0,-22 0,-17 -5,-20l-66 0 0 55 0 222c6,82 71,146 142,161 33,5 52,8 85,0 20,-5 33,-12 45,-20l0 -97z"/>
  </g>
  <g id="_2413227734640">
   <path class="fil2" d="M1570 814c0,57 15,103 44,138 29,35 67,52 113,52 49,0 86,-16 112,-48 27,-32 40,-78 40,-137 0,-59 -14,-105 -41,-138 -28,-33 -66,-50 -114,-50 -48,0 -86,16 -113,48 -27,32 -41,77 -41,135zm5 -631l0 445c14,-35 38,-62 71,-82 33,-19 72,-28 117,-28 74,0 135,27 181,82 46,54 69,126 69,215 0,94 -23,168 -68,221 -45,54 -108,81 -186,81 -40,0 -74,-8 -105,-23 -30,-16 -57,-40 -79,-72l0 72 -128 0 0 -911 128 0z"/>
   <path class="fil2" d="M2103 296c0,-21 8,-40 24,-56 15,-15 34,-23 56,-23 23,0 42,7 57,23 15,15 23,34 23,56 0,23 -8,42 -23,58 -15,15 -34,23 -57,23 -22,0 -41,-8 -56,-24 -16,-16 -24,-35 -24,-57zm17 798l0 -557 127 0 0 557 -127 0z"/>
   <polygon class="fil2" points="2425,1094 2425,649 2328,649 2328,537 2425,537 2425,406 2553,326 2553,537 2650,537 2650,649 2553,649 2553,1094 "/>
   <path class="fil2" d="M2854 1094l-128 0 0 -557 120 0 0 92c26,-39 55,-68 87,-86 32,-18 70,-26 114,-26 44,0 80,9 108,27 29,18 51,46 66,83 29,-38 60,-66 93,-84 34,-18 71,-26 114,-26 36,0 68,6 96,20 27,13 49,33 64,59 7,12 12,27 15,44 4,16 5,40 5,72l0 45 0 337 -127 0 0 -286c0,-75 -8,-124 -24,-148 -16,-23 -44,-35 -85,-35 -50,0 -86,16 -107,48 -21,32 -32,88 -32,168l0 253 -129 0 0 -286c0,-69 -8,-116 -25,-143 -16,-27 -45,-40 -86,-40 -25,0 -48,6 -69,17 -20,11 -37,27 -49,47 -8,13 -13,29 -17,47 -3,19 -4,54 -4,105l0 253z"/>
   <path class="fil2" d="M4270 1094l-127 0 0 -72c-23,32 -50,56 -80,72 -30,15 -65,23 -104,23 -79,0 -141,-27 -186,-81 -46,-53 -68,-127 -68,-221 0,-89 23,-161 69,-215 46,-55 107,-82 181,-82 46,0 85,9 117,28 32,19 56,46 71,82l0 -91 127 0 0 557zm-124 -280c0,-58 -13,-103 -40,-135 -27,-32 -64,-48 -113,-48 -48,0 -86,17 -113,50 -28,33 -42,79 -42,138 0,59 13,105 40,137 27,32 64,48 113,48 46,0 83,-17 112,-52 29,-35 43,-81 43,-138z"/>
   <path class="fil2" d="M4348 993l106 -58c8,28 22,50 44,64 21,15 48,22 81,22 29,0 51,-7 68,-20 16,-13 24,-31 24,-54 0,-30 -29,-56 -87,-77 -19,-7 -35,-13 -45,-18 -60,-25 -101,-50 -125,-75 -24,-25 -36,-57 -36,-93 0,-50 20,-90 59,-121 39,-31 90,-46 155,-46 43,0 80,8 110,23 31,16 54,39 68,68l-91 63c-7,-18 -18,-32 -35,-42 -16,-11 -36,-16 -58,-16 -24,0 -43,6 -58,17 -15,12 -22,27 -22,46 0,29 33,56 98,80 21,7 37,13 49,18 51,20 88,43 110,69 22,26 33,58 33,96 0,56 -20,99 -61,131 -40,31 -95,47 -166,47 -55,0 -100,-10 -136,-30 -36,-21 -64,-52 -85,-94z"/>
   <polygon class="fil2" points="4921,1094 4921,649 4823,649 4823,537 4921,537 4921,406 5049,326 5049,537 5146,537 5146,649 5049,649 5049,1094 "/>
  </g>
 </g>
</svg>
